<svg xmlns="http://www.w3.org/2000/svg" viewBox="0 0 400 80">
  <defs>
    <linearGradient id="grad1" x1="0%" y1="0%" x2="100%" y2="0%">
      <stop offset="0%" style="stop-color:#667eea"/>
      <stop offset="100%" style="stop-color:#764ba2"/>
    </linearGradient>
  </defs>

  <g transform="translate(12, 16)">
    <g stroke="url(#grad1)" stroke-width="1.5" opacity="0.4">
      <line x1="8" y1="12" x2="28" y2="8"/>
      <line x1="8" y1="12" x2="28" y2="24"/>
      <line x1="8" y1="12" x2="28" y2="40"/>
      <line x1="8" y1="36" x2="28" y2="8"/>
      <line x1="8" y1="36" x2="28" y2="24"/>
      <line x1="8" y1="36" x2="28" y2="40"/>
      <line x1="36" y1="8" x2="56" y2="24"/>
      <line x1="36" y1="24" x2="56" y2="24" stroke="#7169c6"/>
      <line x1="36" y1="40" x2="56" y2="24"/>
    </g>

    <circle cx="8" cy="12" r="6" fill="url(#grad1)"/>
    <circle cx="8" cy="36" r="6" fill="url(#grad1)"/>

    <circle cx="32" cy="8" r="6" fill="url(#grad1)"/>
    <circle cx="32" cy="24" r="6" fill="url(#grad1)"/>
    <circle cx="32" cy="40" r="6" fill="url(#grad1)"/>

    <circle cx="56" cy="24" r="6" fill="url(#grad1)"/>
  </g>

  <text x="90" y="52" font-family="system-ui, -apple-system, 'Segoe UI', sans-serif" font-size="36" font-weight="600">
    <tspan fill="#667eea">pocket</tspan><tspan fill="#764ba2">-inference</tspan>
  </text>
</svg>
